<?xml version="1.0" encoding="UTF-8" standalone="no"?><!DOCTYPE svg PUBLIC "-//W3C//DTD SVG 1.1//EN" "http://www.w3.org/Graphics/SVG/1.1/DTD/svg11.dtd"><svg width="100%" height="100%" viewBox="0 0 100 30" version="1.1" xmlns="http://www.w3.org/2000/svg" xmlns:xlink="http://www.w3.org/1999/xlink" xml:space="preserve" xmlns:serif="http://www.serif.com/" style="fill-rule:evenodd;clip-rule:evenodd;stroke-linejoin:round;stroke-miterlimit:2;"><g><path d="M14.67,29.6c-1.22,0 -8.13,0.25 -11.61,-1.65c-2.114,-0.889 -3.358,-3.125 -3,-5.39c0.8,-4.65 5.25,-6.13 6.67,-6.56c0.84,-0.218 1.691,-0.392 2.55,-0.52c1.463,-0.26 2.944,-0.401 4.43,-0.42c1.55,0 3.1,0 4.65,-0.06c0.42,0 0.25,-1 0.25,-1.27c0,-1.56 0.06,-2.91 -0.07,-4.47c-0.12,-1.38 -0.05,-2.26 -0.16,-3.65c-0.12,-6.46 0.62,-7.83 3.13,-0.94c0.94,2.53 1.81,5 1.9,5.23c0.66,1.66 1.2,3.35 1.73,5.05c0.1,0.29 0.77,2.31 1,2.81c0.48,1.33 0.79,2.71 1.17,4.06c0.26,0.91 0.85,3.74 0.31,4.64c-1.66,3.29 -12,3.13 -12.91,3.13m-1.21,-4.78c0.686,0.04 1.374,0.04 2.06,0c0.912,0.012 1.804,-0.272 2.54,-0.81c0.193,-0.128 0.346,-0.308 0.44,-0.52c0.205,-0.521 0.274,-1.085 0.2,-1.64c-0.167,-0.914 -0.886,-1.633 -1.8,-1.8c-0.764,-0.224 -1.554,-0.352 -2.35,-0.38c-1.464,-0.081 -2.93,0.147 -4.3,0.67c-0.545,0.274 -0.957,0.758 -1.14,1.34c-0.287,0.645 -0.152,1.404 0.34,1.91c0.581,0.641 1.379,1.044 2.24,1.13c0.59,0.07 1.18,0.06 1.77,0.08" style="fill:#fff;"/></g><g><path d="M73.24,24.83c0,0.14 0,0.5 0.15,0.52c1,-0.18 1,-0.53 1,-1c-0.082,-1.153 -0.062,-2.311 0.06,-3.46c0.074,-1.968 1.171,-3.76 2.89,-4.72c1.37,-0.77 5.26,-1.52 7.63,0.2c0.854,0.708 1.5,1.634 1.87,2.68c0.198,0.397 0.294,0.837 0.28,1.28c-0.13,0.52 -2.77,1.2 -3.72,1.43c-1.16,0.28 -2.32,0.54 -3.45,0.87c-0.46,0.13 -1.19,0.29 -1.65,0.44c-0.46,0.15 -0.65,0.14 -0.61,0.76c0.04,0.62 0.11,2.58 1.32,2.79c1.102,0.171 2.229,0.05 3.27,-0.35c1.397,-0.624 2.65,-1.529 3.68,-2.66c1.18,-1.28 1.86,-1.27 2.21,-1.09c0.315,0.168 0.55,0.457 0.65,0.8c0.2,0.58 0.48,2.59 2,3.07c0.576,0.176 1.164,0.306 1.76,0.39c0.473,0.033 0.949,0.02 1.42,-0.04c1.67,-0.11 2,-0.92 1.82,-1.76c-0.18,-0.84 -3.52,-2.12 -4.59,-2.67c-0.67,-0.31 -2.83,-1.31 -2.65,-3.31c0.083,-1.424 0.998,-2.672 2.33,-3.18c1.19,-0.68 4.4,-0.51 5.71,-0c0.45,0.18 3.17,0.8 2.35,2.46c-0.12,0.24 -0.2,0.46 -0.47,0.57c-0.311,0.149 -0.661,0.195 -1,0.13c-0.79,-0.16 -1.47,-0.55 -2.26,-0.72c-0.868,-0.241 -1.783,-0.258 -2.66,-0.05c-0.17,0.07 -1.35,0.81 0,1.64c0.12,0.07 4.64,2 5.71,3.14c0.629,0.65 0.987,1.516 1,2.42c0.064,1.941 -1.366,3.636 -3.29,3.9c-1.542,0.242 -3.108,0.282 -4.66,0.12c-1.091,-0.153 -2.135,-0.543 -3.06,-1.14c-0.503,-0.417 -0.903,-0.944 -1.17,-1.54c-0.1,-0.23 -0.13,-0.24 -0.31,-0.05c-0.425,0.483 -0.902,0.919 -1.42,1.3c-0.705,0.492 -1.485,0.867 -2.31,1.11c-1.553,0.44 -3.181,0.552 -4.78,0.33c-0.763,-0.227 -1.475,-0.597 -2.1,-1.09c-0.32,-0.29 -0.55,-0.95 -1,-0.67c-0.23,0.08 -1.69,0.9 -2.57,1.3c-0.63,0.28 -1.49,0.23 -1.63,-0.35c-0.245,-1.052 -0.402,-2.122 -0.47,-3.2c-0.06,-1.11 -0.48,-5.08 -0.55,-6c-0.16,-1.33 -1.3,-1.32 -2,-1.24c-0.7,0.08 -2.29,0.3 -2.75,1c-0.245,0.377 -0.367,0.821 -0.35,1.27c0,1.58 0.14,6.49 0.25,7.77c0,0.7 -0.23,1 -1,1.18c-0.277,0.055 -0.558,0.085 -0.84,0.09c-0.75,-0 -1.07,-0.26 -1.12,-0.94c-0.06,-1 0,-1.34 0,-2.37c0,-0 0,-0.43 -0.77,0.27c-0.77,0.7 -1.49,1.22 -2.2,1.87c-0.358,0.33 -0.739,0.635 -1.14,0.91c-0.231,0.229 -0.571,0.31 -0.88,0.21c-0.71,-0.17 -0.8,-1.68 -0.84,-2.13c-0.14,-1.7 -0.29,-3.35 -0.42,-5.05c-0.11,-1.38 -0.22,-2.8 -0.27,-4.18c-0.06,-0.813 0.085,-1.627 0.42,-2.37c0.31,-0.39 1.73,-0.78 2.19,0.25c0.106,0.351 0.163,0.714 0.17,1.08c0.11,1.9 0.43,7.94 0.62,7.92c0.951,-0.605 1.83,-1.316 2.62,-2.12c0.267,-0.397 0.387,-0.874 0.34,-1.35c0,-1.42 -0.11,-3 -0.07,-4.42l0,-1.22c0.216,-0.729 0.89,-1.232 1.649,-1.232c0.209,-0 0.416,0.038 0.611,0.112c0.202,0.029 0.361,0.188 0.39,0.39c0,0.28 0.09,0.56 0.15,0.84c0.06,0.28 0.16,0.31 0.41,0.23c0.113,-0.039 0.221,-0.093 0.32,-0.16c1.79,-0.885 3.87,-0.99 5.74,-0.29c0.701,0.287 1.202,0.922 1.32,1.67c0.17,1.34 0.23,2.46 0.38,3.87c0,0.38 0.36,3.51 0.36,3.54m6.54,-6.77c-0.41,0.17 -2.08,0.66 -2.3,2.28c0,0.06 0,0.4 0.08,0.43c0.13,0.19 1.49,-0.29 1.78,-0.36c1.12,-0.28 2.29,-0.59 3.41,-0.86c0.339,-0.084 0.673,-0.187 1,-0.31c0.27,-0.07 0.07,-0.3 0,-0.42c-0.68,-1.77 -3.73,-0.88 -4,-0.76" style="fill:#fff;"/></g><path d="M58.53,11.31c-0.012,0.457 -0.128,0.905 -0.34,1.31c-0.3,0.461 -0.88,0.66 -1.4,0.48c-0.433,-0.092 -0.801,-0.375 -1,-0.77c-0.374,-0.708 -0.271,-1.58 0.26,-2.18c0.265,-0.311 0.68,-0.453 1.08,-0.37c0.782,0.077 1.384,0.744 1.38,1.53" style="fill:#fff;"/><path d="M55.39,15.13c0,-0.33 -0.13,-0.59 -0.48,-0.68c-0.15,0 -0.64,-0.28 -1,0c-0.429,0.314 -0.806,0.691 -1.12,1.12c-1.291,1.675 -2.379,3.498 -3.24,5.43c-0.39,0.85 -0.83,1.69 -1.25,2.53c-0.09,0.163 -0.19,0.32 -0.3,0.47c-0.24,0.33 -0.3,0.33 -0.59,0c-0.197,-0.231 -0.368,-0.482 -0.51,-0.75c-1.06,-2 -2.16,-4 -3.13,-6.07c-0.2,-0.42 -0.43,-0.84 -0.65,-1.26c-0.02,-0.058 -0.051,-0.113 -0.09,-0.16c-0.263,-0.261 -0.66,-0.336 -1,-0.19c-0.33,0.12 -1.18,0.4 -2.09,0.76c-0.69,0.254 -1.358,0.562 -2,0.92c-0.22,0.11 -0.56,0.31 -0.79,0.42c-0.443,-0.786 -0.948,-1.535 -1.51,-2.24c-0.43,-0.461 -1.013,-0.752 -1.64,-0.82c-0.451,-0.044 -0.907,-0.017 -1.35,0.08c-1.166,0.316 -2.246,0.89 -3.16,1.68c-1.55,1.27 0.42,2.53 1.37,1.87c0.494,-0.373 1.015,-0.707 1.56,-1c0.476,-0.259 1.06,-0.232 1.51,0.07c0.368,0.333 0.629,0.768 0.75,1.25c0.08,0.22 0.07,0.3 -0.16,0.42c-0.23,0.12 -1.65,0.94 -1.9,1.14c-1.48,1 -3.48,2 -4.11,5.25c-0.15,0.76 -0.24,3 1.7,3.69c1.22,0.369 2.516,0.418 3.76,0.14c1.337,-0.298 2.628,-0.772 3.84,-1.41l0.13,-0.07c0.33,-0.16 0.38,-0.14 0.55,0.18c0.215,0.403 0.462,0.788 0.74,1.15c0.418,0.353 0.989,0.466 1.51,0.3c1.82,-0.63 0,-3.72 -0.08,-3.89c-0.66,-1.46 -1.66,-3.55 -2.39,-5.09c-0.12,-0.23 0.26,-0.42 0.55,-0.57c0.732,-0.437 1.519,-0.773 2.34,-1c0.31,-0.12 0.38,-0 0.53,0.26c0.53,1 1.1,2.53 1.59,3.56c0.78,1.65 1.71,3.62 2.63,5.21c0.257,0.444 0.57,0.854 0.93,1.22c0.456,0.475 1.176,0.593 1.76,0.29c0.286,-0.175 0.523,-0.419 0.69,-0.71c0.38,-0.83 0.62,-1.18 1,-2c0.23,-0.62 2.29,-5.27 3.15,-6.75c0.704,-1.296 1.331,-2.631 1.88,-4c0.103,-0.229 0.145,-0.48 0.12,-0.73m-20.82,11.39c-1.75,0.71 -4.17,0.48 -3.11,-1.75c0.571,-1.037 1.402,-1.909 2.41,-2.53c1.27,-0.86 1.8,-1.16 2,-0.65c0,0.05 0.89,1.7 1.16,2.47c0.72,1.63 -2.21,2.37 -2.44,2.46" style="fill:#fff;"/></svg>